HIERARCHY
ROOT Hips
{
    OFFSET 0.0 0.0 0.0
    CHANNELS 6 Xposition Yposition Zposition Zrotation Xrotation Yrotation
    JOINT LeftUpLeg
    {
        OFFSET 16.070792936837933 0.0 0.0
        CHANNELS 3 Zrotation Xrotation Yrotation
        JOINT LeftLeg
        {
            OFFSET 0.0 0.0 -63.08615077701257
            CHANNELS 3 Zrotation Xrotation Yrotation
            JOINT LeftFoot
            {
                OFFSET 0.0 0.0 -49.882981476446034
                CHANNELS 3 Zrotation Xrotation Yrotation
                JOINT LeftToeBase
                {
                    OFFSET 0.0 -11.524252011934239 0.0
                    CHANNELS 3 Zrotation Xrotation Yrotation
                    End Site
                    {
                        OFFSET 0 0 0
                    }
                }
            }
        }
    }
    JOINT RightUpLeg
    {
        OFFSET -16.070792936837933 0.0 0.0
        CHANNELS 3 Zrotation Xrotation Yrotation
        JOINT RightLeg
        {
            OFFSET 0.0 0.0 -63.08615077701257
            CHANNELS 3 Zrotation Xrotation Yrotation
            JOINT RightFoot
            {
                OFFSET 0.0 0.0 -49.882981476446034
                CHANNELS 3 Zrotation Xrotation Yrotation
                JOINT RightToeBase
                {
                    OFFSET 0.0 -11.524252011934239 0.0
                    CHANNELS 3 Zrotation Xrotation Yrotation
                    End Site
                    {
                        OFFSET 0 0 0
                    }
                }
            }
        }
    }
    JOINT Spine
    {
        OFFSET 0.0 0.0 11.368004745329976
        CHANNELS 3 Zrotation Xrotation Yrotation
        JOINT Spine1
        {
            OFFSET 0.0 0.0 11.234223968697231
            CHANNELS 3 Zrotation Xrotation Yrotation
            JOINT Spine2
            {
                OFFSET 0.0 0.0 11.23422396869723
                CHANNELS 3 Zrotation Xrotation Yrotation
                JOINT Spine3
                {
                    OFFSET 0.0 0.0 11.234223968697227
                    CHANNELS 3 Zrotation Xrotation Yrotation
                    JOINT Spine4
                    {
                        OFFSET 0.0 0.0 11.234223968697233
                        CHANNELS 3 Zrotation Xrotation Yrotation
                        JOINT RightShoulder
                        {
                            OFFSET -26.554900887234652 0.0 0.0
                            CHANNELS 3 Zrotation Xrotation Yrotation
                            JOINT RightArm
                            {
                                OFFSET -31.663923081115293 0.0 0.0
                                CHANNELS 3 Zrotation Xrotation Yrotation
                                JOINT RightForeArm
                                {
                                    OFFSET -31.70893902390454 0.0 0.0
                                    CHANNELS 3 Zrotation Xrotation Yrotation
                                    JOINT RightHand
                                    {
                                        OFFSET -11.549595102158229 0.0 0.0
                                        CHANNELS 3 Zrotation Xrotation Yrotation
                                        End Site
                                        {
                                            OFFSET 0 0 0
                                        }
                                    }
                                }
                            }
                        }
                        JOINT LeftShoulder
                        {
                            OFFSET 26.554900887234652 0.0 0.0
                            CHANNELS 3 Zrotation Xrotation Yrotation
                            JOINT LeftArm
                            {
                                OFFSET 31.663923081115293 0.0 0.0
                                CHANNELS 3 Zrotation Xrotation Yrotation
                                JOINT LeftForeArm
                                {
                                    OFFSET 31.70893902390454 0.0 0.0
                                    CHANNELS 3 Zrotation Xrotation Yrotation
                                    JOINT LeftHand
                                    {
                                        OFFSET 11.549595102158229 0.0 0.0
                                        CHANNELS 3 Zrotation Xrotation Yrotation
                                        End Site
                                        {
                                            OFFSET 0 0 0
                                        }
                                    }
                                }
                            }
                        }
                        JOINT Neck
                        {
                            OFFSET 0.0 0.0 11.2342239456822
                            CHANNELS 3 Zrotation Xrotation Yrotation
                            JOINT Head
                            {
                                OFFSET 0.0 0.0 26.61986423325094
                                CHANNELS 3 Zrotation Xrotation Yrotation
                                End Site
                                {
                                    OFFSET 0 0 0
                                }
                            }
                        }
                    }
                }
            }
        }
    }
}
MOTION
Frames: 4
Frame Time: 0.03333333333333333
21.248396050930026 -0.34576609781943257 412.5790546417237 13.433883939572318 -78.57193388940058 13.550650905231867 -0.4194783127476702 -8.568950395835675 -12.471742701908484 36.41720918929574 -18.131265493712213 22.65582727612037 -146.31740674293457 -1.1131941385122309e-14 37.16887399032409 0.0 0.0 0.0 5.597575706020335 -3.997028672840008 13.240038325405957 -35.016678331587855 -20.77688424561452 -40.36227201836079 108.31045030863596 0.0 -86.30929292582499 0.0 0.0 0.0 0.6512696409771609 -12.671536113242865 1.1577577731556312 3.975693351829396e-16 -6.896728590703373e-34 -1.987846675914698e-16 3.975693351829396e-16 -6.896728590703373e-34 -1.987846675914698e-16 3.975693351829396e-16 -6.896728590703373e-34 -1.987846675914698e-16 3.975693351829396e-16 -6.896728590703373e-34 -1.987846675914698e-16 150.17776237227318 -2.396708014811078 -142.47138156710662 112.59591929984082 1.8964489120812244e-14 5.958321330803282e-15 180.0 1.4370741969281713 -179.99999999999997 3.1805546814635168e-15 -4.4139062980501586e-32 -1.5902773407317584e-15 -168.43907193705184 -12.450813970002828 131.50157520763307 -104.56449603255604 -5.031853944256315e-15 3.891549589917895e-15 -179.99999999999997 -81.84015442287156 -179.99999999999997 -1.5902773407317584e-15 -3.310429723537619e-32 2.3854160110976376e-15 -5.530190714969756 1.7547141246470283e-14 8.474833945833e-16 0.0 0.0 0.0
20.54586067199707 -0.20345911555923518 412.8630403518677 7.968416606369786 -79.55346449370971 8.458499733864413 -1.2736293847907039 -7.952690682061917 -16.089084922497953 27.77215214542807 -12.573593692926206 31.97488415578143 -168.69500074365064 1.5902773407317584e-15 64.19361212956349 0.0 0.0 -7.951386703658792e-16 6.176253782636326 -3.4539786049942203 12.260822035219904 -33.96013125397597 -20.82296406955638 -39.810107648076475 107.6143953995686 -9.54166404439055e-15 -86.66227543290375 0.0 0.0 0.0 0.5382599687431557 -12.206668063186497 0.7738391346766184 0.0 0.0 9.93923337957349e-17 0.0 0.0 9.93923337957349e-17 0.0 0.0 9.93923337957349e-17 0.0 0.0 9.93923337957349e-17 153.41706443262353 -0.7925984976456699 -145.19130045075656 114.5374266808524 -5.159175375483175e-15 8.026597173212535e-15 -8.912135377797715e-15 -55.00325181974612 -1.539694417225959e-14 -1.5902773407317584e-15 0.0 0.0 176.81504353414252 -13.922277016202463 128.37693529031395 -105.01757178693524 -3.8716241195859715e-15 -5.047201105935657e-15 180.0 -65.00572028258446 179.99999999999997 2.782985346280577e-15 3.9756933518293955e-16 -1.2921003393445538e-15 -5.146216247487968 7.855720369724979e-15 -4.493903491101899e-17 3.975693351829396e-16 0.0 0.0
19.889623510837556 -0.06211708509363231 413.1945962905884 -0.9036969729896479 -80.72495255774959 0.07947397047007414 -3.1953724423222547 -6.304581627435671 -20.974092509111415 26.138932396739122 -9.709318286035884 36.482066841779535 -161.7286237890553 -1.5902773407317584e-15 68.95155118608989 0.0 0.0 -9.54166404439055e-15 6.935080827124861 -2.701325417041321 11.199598436080851 -32.68987484947529 -20.7266571415529 -39.28388544554213 106.93438591553185 1.2722218725854067e-14 -86.72708341766102 0.0 0.0 0.0 0.425579292289466 -11.482810530162 0.24434867310724626 -4.969616689786745e-17 0.0 0.0 -4.969616689786745e-17 0.0 0.0 -4.969616689786745e-17 0.0 0.0 -4.969616689786745e-17 0.0 0.0 156.61031153407106 1.5623783171586887 -147.8678544823178 116.76909588592437 -1.0418918101138871e-14 4.7909509144734686e-15 7.658426169436769e-15 -45.46309476737726 -2.398633346302418e-16 -3.1805546814635168e-15 0.0 0.0 162.5157470265357 -15.035966933322864 126.98007450925925 -103.93788749471449 1.959503205413587e-15 2.5052495424115686e-15 179.99999999999997 -66.49295676293157 179.99999999999997 -3.1060104311167156e-18 7.143401134291763e-35 -2.6354498508025333e-15 -4.758467797941206 -5.675007974797185e-15 -6.33705251576971e-16 0.0 0.0 0.0
19.247324305772786 -0.0019153913017362356 413.6153938293457 -15.662906607695366 -81.9426260278216 -13.959908566942854 -8.402764799384522 -1.4371605614784677 -27.25533586039941 25.946724142280548 -6.853872111378231 40.15062971171699 -155.82032084393933 4.770832022195275e-15 79.98973159518444 0.0 0.0 -3.1805546814635168e-15 7.95548706125741 -1.5811182166205953 9.924530996315198 -31.25216038586598 -20.52971856097254 -38.80632898726573 111.17412821946166 -6.3611093629270335e-15 -77.64199560133135 0.0 0.0 0.0 0.3405426235868986 -10.466291698834413 -0.30787171960542414 0.0 0.0 -1.987846675914698e-16 0.0 0.0 -1.987846675914698e-16 0.0 0.0 -1.987846675914698e-16 0.0 0.0 -1.987846675914698e-16 160.19384805927376 4.0982991570877285 -150.40712229983143 119.20141903676269 -2.0117926077628372e-15 3.4291147736888684e-15 4.867284870218678e-15 -34.959393476550474 4.867284870218678e-15 -3.1805546814635168e-15 0.0 0.0 150.6574296334731 -17.44180587023143 127.46894402812181 -98.69303756463158 9.651883352890622e-15 -8.288304835770992e-15 180.0 -59.86499262672216 180.0 0.0 0.0 3.975693351829397e-15 -4.4085312499335565 1.452459696391917e-14 5.590616758661359e-16 -7.951386703658792e-16 0.0 0.0
